<svg version="1.1" xmlns="http://www.w3.org/2000/svg" xmlns:xlink="http://www.w3.org/1999/xlink" width="48" height="48"><defs><linearGradient x1="9.82524" y1="9.91022" x2="41.0032" y2="40.91821" gradientUnits="userSpaceOnUse" id="color-1"><stop offset="0" stop-color="#000000" stop-opacity="0.3"></stop><stop offset="1" stop-color="#000000" stop-opacity="0"></stop></linearGradient><filter id="dropshadow-base"><feColorMatrix type="matrix" values="0 0 0 0 0  0 0 0 0 0  0 0 0 0 0  0 0 0 .8 0"></feColorMatrix> <feOffset dx="0" dy="1"></feOffset> <feGaussianBlur stdDeviation="1"></feGaussianBlur> <feComposite in="SourceGraphic"></feComposite></filter><filter id="dropshadow-banner" x="-10%" y="-10%" width="120%" height="130%"><feColorMatrix type="matrix" values="0 0 0 0 0  0 0 0 0 0  0 0 0 0 0  0 0 0 .4 0"></feColorMatrix> <feOffset dx="0" dy="1"></feOffset> <feGaussianBlur stdDeviation="0.5"></feGaussianBlur> <feComposite in="SourceGraphic"></feComposite></filter></defs><g fill="none" fill-rule="nonzero" stroke="none" stroke-width="none" stroke-linecap="butt" stroke-linejoin="miter" stroke-miterlimit="none" stroke-dasharray="" stroke-dashoffset="0" font-family="none" font-weight="none" font-size="none" text-anchor="none" style="mix-blend-mode: normal"><path d="M7,43c-1.10457,0 -2,-0.89543 -2,-2v-34c0,-1.10457 0.89543,-2 2,-2h34c1.10457,0 2,0.89543 2,2v34c0,1.10457 -0.89543,2 -2,2z" id="base 1 5 1 1" fill="#1048c7" stroke-width="1" stroke-miterlimit="10"></path><path d="M15.1859,35.46167c-0.30721,-1.15168 -0.40951,-2.2211 -0.33892,-3.04983c0.51488,-6.04542 9.51167,-11.45399 10.52629,-19.59781c-7.14485,0.74442 -12.71953,6.9107 -12.7196,14.40735c0.00426,2.98005 0.90627,5.84789 2.53223,8.24029zM28.27155,14.89346c0.3858,6.43889 5.66524,11.17566 8.47908,15.77725c0.92607,-1.94824 1.41684,-4.09298 1.42415,-6.27776c-0.00002,-3.21316 -1.04509,-6.31622 -2.94287,-8.8348c-2.42021,-1.82042 -5.3615,-2.81954 -8.4036,-2.81951h-0.00001c-0.23285,0 -0.46438,0.00574 -0.69448,0.01708zM23.99987,9.91022c3.70853,-0.00004 7.26725,1.48479 9.91473,4.13227l2.82843,2.82843c0.0363,0.0363 0.07243,0.07282 0.10838,0.10955c2.65831,2.71604 4.15176,6.3998 4.15179,10.24091c-0.00981,2.93296 -0.89091,5.79375 -2.52675,8.20387l-0.05053,-0.05053c0.00873,0.02882 0.01724,0.05767 0.02554,0.08653c-0.96816,1.43203 -2.18104,2.67403 -3.58046,3.66643l-2.82843,-2.82843c0.18406,-0.61392 0.26837,-1.20819 0.29705,-1.71788c0.16894,-3.00236 -2.69827,-6.02252 -4.82163,-9.29005c-1.82102,4.39123 -6.65241,8.26926 -6.4332,12.1182c0.05731,1.00621 0.32924,2.34078 1.1811,3.50869c-1.17714,-0.41317 -2.2959,-0.98293 -3.3274,-1.69462l-0.92076,-0.92076c0.02787,0.10401 0.0574,0.20869 0.08863,0.31391c-0.4194,-0.33449 -0.81756,-0.69078 -1.19344,-1.06666l-2.82843,-2.82843c-2.70312,-2.70312 -4.25366,-6.41936 -4.25925,-10.32869c0.00007,-7.99858 6.34622,-14.48268 14.17462,-14.48273zM28.16912,22.79202c0.384,4.18706 4.45915,7.87437 6.21191,11.42719c0.44898,-0.49749 0.86413,-1.02746 1.24201,-1.58639c-1.0205,-3.55267 -5.4013,-6.80006 -8.1078,-10.87688c-0.03442,0.0923 -0.06996,0.18417 -0.10657,0.27562zM18.64059,37.78244c0.26235,0.11049 0.52809,0.213 0.79687,0.30734c-0.41509,-0.5691 -0.69249,-1.17777 -0.87445,-1.76873c-0.02268,0.41819 0.00148,0.91481 0.07758,1.46139zM35.1855,30.39606c-1.19936,-3.35248 -4.4279,-6.62275 -6.84662,-10.41529c0.80607,4.14238 4.17284,7.3697 6.84662,10.41529z" fill="url(#color-1)" stroke-width="1" stroke-miterlimit="10"></path><path d="M23.99986,9.91021c-7.82839,0.00005 -14.17455,6.48416 -14.17462,14.48273c0.00636,4.45294 2.01722,8.65536 5.45269,11.39536c-0.3785,-1.27527 -0.50818,-2.46989 -0.43096,-3.37648c0.53051,-6.22886 10.06547,-11.78163 10.59614,-20.34681c0.51316,8.56471 9.68468,14.11784 10.19497,20.34709c0.00487,0.05941 0.00681,0.1229 0.00994,0.1847c1.63584,-2.41012 2.51695,-5.27092 2.52675,-8.20386c-0.00003,-3.8411 -1.49348,-7.52487 -4.15179,-10.24091c-2.65831,-2.71604 -6.26373,-4.24187 -10.02311,-4.24182zM25.35033,15.90764c-0.48097,7.37535 -9.12288,12.05303 -9.60371,17.41661c-0.06973,0.77783 0.03854,1.87334 0.36344,3.07092c1.0315,0.71169 2.15026,1.28146 3.3274,1.69462c-0.85186,-1.16792 -1.12379,-2.50248 -1.1811,-3.50869c-0.25987,-4.56277 6.57801,-9.16644 7.08433,-14.61749c0.49992,5.45094 7.25567,10.0549 6.99893,14.61778c-0.02868,0.5097 -0.11298,1.10396 -0.29705,1.71789c1.39941,-0.9924 2.61229,-2.2344 3.58047,-3.66643c-1.46196,-5.08953 -9.82035,-9.55252 -10.2727,-16.7252z" id="path5702 1 1" fill="none" stroke-width="0" stroke-miterlimit="4"></path><path d="M34.02297,14.15203c2.65831,2.71604 4.15175,6.39981 4.15179,10.24091c-0.0098,2.93295 -0.89091,5.79374 -2.52675,8.20386c-0.00312,-0.06179 -0.00507,-0.12529 -0.00994,-0.1847c-0.51028,-6.22925 -9.6818,-11.78239 -10.19497,-20.34709c-0.53066,8.56517 -10.06563,14.11795 -10.59614,20.34681c-0.07721,0.90659 0.05246,2.10121 0.43096,3.37648c-3.43547,-2.73999 -5.44633,-6.94241 -5.45269,-11.39536c0.00007,-7.99857 6.34623,-14.48268 14.17462,-14.48273c3.75938,-0.00005 7.3648,1.52578 10.02311,4.24182zM35.62304,32.63284c-0.96817,1.43203 -2.18105,2.67403 -3.58047,3.66643c0.18407,-0.61393 0.26837,-1.20819 0.29705,-1.71789c0.25674,-4.56287 -6.49902,-9.16683 -6.99893,-14.61778c-0.50632,5.45106 -7.34419,10.05472 -7.08433,14.61749c0.05731,1.00621 0.32924,2.34077 1.1811,3.50869c-1.17714,-0.41316 -2.29589,-0.98293 -3.3274,-1.69462c-0.3249,-1.19758 -0.43317,-2.29308 -0.36344,-3.07092c0.48083,-5.36358 9.12274,-10.04126 9.60371,-17.41661c0.45236,7.17268 8.81075,11.63567 10.2727,16.7252z" id="path5702 1 1" fill="#ffffff" stroke-width="0" stroke-miterlimit="4"></path><path d="M2,24c0,-12.15026 9.84974,-22 22,-22c12.15026,0 22,9.84974 22,22c0,12.15026 -9.84974,22 -22,22c-12.15026,0 -22,-9.84974 -22,-22z" id="base 1 1 1" fill="none" stroke-width="1" stroke-miterlimit="10"></path><g id="svg4159 1 1" fill="#000000" stroke-width="1" stroke-miterlimit="10" font-family="Roboto, sans-serif" font-weight="400" font-size="14" text-anchor="start"><g id="layer1 1 1"></g></g><rect x="2" y="2" width="44" height="22" fill="none" stroke-width="1" stroke-miterlimit="10"></rect><path d="M2,24v-22h44v22z" fill="none" stroke-width="1" stroke-miterlimit="10"></path><path d="M2,24v-22h44v22z" fill="none" stroke-width="1" stroke-miterlimit="10"></path><path d="M2,24v-22h44v22z" fill="none" stroke-width="1" stroke-miterlimit="10"></path><path d="M2,24v-22h44v22z" fill="none" stroke-width="1" stroke-miterlimit="10"></path></g></svg>