<?xml version="1.0" encoding="UTF-8" standalone="no"?>
<!-- Created with Inkscape (http://www.inkscape.org/) -->

<svg
   xmlns:dc="http://purl.org/dc/elements/1.1/"
   xmlns:cc="http://creativecommons.org/ns#"
   xmlns:rdf="http://www.w3.org/1999/02/22-rdf-syntax-ns#"
   xmlns:svg="http://www.w3.org/2000/svg"
   xmlns="http://www.w3.org/2000/svg"
   xmlns:xlink="http://www.w3.org/1999/xlink"
   xmlns:sodipodi="http://sodipodi.sourceforge.net/DTD/sodipodi-0.dtd"
   xmlns:inkscape="http://www.inkscape.org/namespaces/inkscape"
   width="210mm"
   height="297mm"
   viewBox="0 0 744.09448819 1052.3622047"
   id="svg5418"
   version="1.1"
   inkscape:version="0.91 r13725"
   sodipodi:docname="eopc-logo-icon.svg">
  <defs
     id="defs5420">
    <linearGradient
       inkscape:collect="always"
       xlink:href="#linearGradient5671"
       id="linearGradient5730"
       x1="156.2706"
       y1="519.91083"
       x2="150.61375"
       y2="768.81238"
       gradientUnits="userSpaceOnUse"
       gradientTransform="matrix(0.97719871,0,0,0.96283784,-15.312201,-24.632228)" />
    <linearGradient
       inkscape:collect="always"
       id="linearGradient5671">
      <stop
         style="stop-color:#ffffff;stop-opacity:1;"
         offset="0"
         id="stop5673" />
      <stop
         style="stop-color:#ffffff;stop-opacity:0;"
         offset="1"
         id="stop5675" />
    </linearGradient>
  </defs>
  <sodipodi:namedview
     id="base"
     pagecolor="#ffffff"
     bordercolor="#666666"
     borderopacity="1.0"
     inkscape:pageopacity="0.0"
     inkscape:pageshadow="2"
     inkscape:zoom="0.35"
     inkscape:cx="-273.57143"
     inkscape:cy="494.09946"
     inkscape:document-units="px"
     inkscape:current-layer="layer1"
     showgrid="false"
     inkscape:window-width="1920"
     inkscape:window-height="977"
     inkscape:window-x="0"
     inkscape:window-y="24"
     inkscape:window-maximized="1" />
  <metadata
     id="metadata5423">
    <rdf:RDF>
      <cc:Work
         rdf:about="">
        <dc:format>image/svg+xml</dc:format>
        <dc:type
           rdf:resource="http://purl.org/dc/dcmitype/StillImage" />
        <dc:title></dc:title>
      </cc:Work>
    </rdf:RDF>
  </metadata>
  <g
     inkscape:label="Layer 1"
     inkscape:groupmode="layer"
     id="layer1">
    <g
       id="g5742"
       transform="translate(240.17183,-98.967289)">
      <rect
         ry="45.254833"
         y="520.49658"
         x="23.334524"
         height="209.30362"
         width="217.08179"
         id="rect5718"
         style="opacity:1;fill:#1047c7;fill-opacity:1;stroke:none;stroke-width:0;stroke-miterlimit:4;stroke-dasharray:none;stroke-opacity:1" />
      <path
         inkscape:connector-curvature="0"
         id="path5720"
         d="m 132.93567,544.4493 a 82.731547,84.530054 0 0 0 -82.73098,84.52931 82.731547,84.530054 0 0 0 31.824964,66.50968 c -2.209135,-7.44317 -2.965998,-14.41565 -2.515336,-19.707 3.096336,-36.35509 58.747722,-68.76419 61.844962,-118.75533 2.99512,49.9884 56.52523,82.39959 59.50353,118.75699 0.0284,0.34675 0.0398,0.71734 0.058,1.078 a 82.731547,84.530054 0 0 0 14.74751,-47.88234 82.731547,84.530054 0 0 0 -82.73264,-84.52931 z m 7.88213,35.00432 c -2.80721,43.04668 -53.246186,70.3482 -56.052586,101.65308 -0.40698,4.53988 0.22494,10.93385 2.12122,17.92359 a 82.731547,84.530054 0 0 0 19.420526,9.89075 c -4.97192,-6.81661 -6.559076,-14.60586 -6.893556,-20.47865 -1.51672,-26.63089 38.392956,-53.50046 41.348106,-85.31586 2.91778,31.81475 42.34815,58.68604 40.84967,85.31752 -0.16738,2.97487 -0.65942,6.44331 -1.73374,10.02654 a 82.731547,84.530054 0 0 0 20.8976,-21.39935 C 192.24224,647.3659 143.458,621.3174 140.8178,579.45362 Z"
         style="opacity:1;fill:#ffffff;fill-opacity:1;stroke:none;stroke-width:0;stroke-miterlimit:4;stroke-dasharray:none;stroke-opacity:1" />
      <rect
         style="opacity:0.45199998;fill:url(#linearGradient5730);fill-opacity:1;stroke:none;stroke-width:0;stroke-miterlimit:4;stroke-dasharray:none;stroke-opacity:1"
         id="rect5722"
         width="212.13203"
         height="201.52545"
         x="25.455847"
         y="522.25397"
         ry="43.573067" />
    </g>
  </g>
</svg>
