<?xml version="1.0" encoding="UTF-8" standalone="no"?>
<!-- Created with Inkscape (http://www.inkscape.org/) -->

<svg
   xmlns:dc="http://purl.org/dc/elements/1.1/"
   xmlns:cc="http://creativecommons.org/ns#"
   xmlns:rdf="http://www.w3.org/1999/02/22-rdf-syntax-ns#"
   xmlns:svg="http://www.w3.org/2000/svg"
   xmlns="http://www.w3.org/2000/svg"
   xmlns:sodipodi="http://sodipodi.sourceforge.net/DTD/sodipodi-0.dtd"
   xmlns:inkscape="http://www.inkscape.org/namespaces/inkscape"
   width="210mm"
   height="297mm"
   viewBox="0 0 744.09448819 1052.3622047"
   id="svg5418"
   version="1.1"
   inkscape:version="0.91 r13725"
   sodipodi:docname="eopc-logo-dark.svg">
  <defs
     id="defs5420" />
  <sodipodi:namedview
     id="base"
     pagecolor="#ffffff"
     bordercolor="#666666"
     borderopacity="1.0"
     inkscape:pageopacity="0.0"
     inkscape:pageshadow="2"
     inkscape:zoom="0.35"
     inkscape:cx="-1342.1429"
     inkscape:cy="494.09946"
     inkscape:document-units="px"
     inkscape:current-layer="layer1"
     showgrid="false"
     inkscape:window-width="1920"
     inkscape:window-height="977"
     inkscape:window-x="0"
     inkscape:window-y="24"
     inkscape:window-maximized="1" />
  <metadata
     id="metadata5423">
    <rdf:RDF>
      <cc:Work
         rdf:about="">
        <dc:format>image/svg+xml</dc:format>
        <dc:type
           rdf:resource="http://purl.org/dc/dcmitype/StillImage" />
        <dc:title />
      </cc:Work>
    </rdf:RDF>
  </metadata>
  <g
     inkscape:label="Layer 1"
     inkscape:groupmode="layer"
     id="layer1">
    <rect
       style="opacity:1;fill:#1048c7;fill-opacity:1;stroke:none;stroke-width:0;stroke-miterlimit:4;stroke-dasharray:none;stroke-opacity:1"
       id="rect5708"
       width="533.15851"
       height="248.90158"
       x="105.46799"
       y="401.73032" />
    <path
       inkscape:connector-curvature="0"
       id="path5702"
       d="m 229.91826,430.0146 a 97.580742,99.702057 0 0 0 -97.58009,99.7012 97.580742,99.702057 0 0 0 37.53711,78.4473 c -2.60564,-8.7791 -3.49835,-17.0031 -2.9668,-23.2442 3.65209,-42.8803 69.29216,-81.1064 72.94532,-140.0703 3.5327,58.9607 66.67074,97.1892 70.1836,140.0723 0.0335,0.409 0.0469,0.8461 0.0684,1.2715 a 97.580742,99.702057 0 0 0 17.39449,-56.4766 97.580742,99.702057 0 0 0 -97.58203,-99.7012 z m 9.29687,41.2871 c -3.31107,50.773 -62.80318,82.9748 -66.11329,119.8985 -0.48003,5.3547 0.26531,12.8963 2.50195,21.1406 a 97.580742,99.702057 0 0 0 22.90626,11.666 c -5.86432,-8.0401 -7.73635,-17.2274 -8.13086,-24.1543 -1.78895,-31.4107 45.28399,-63.103 48.76954,-100.6289 3.44149,37.5251 49.94907,69.2194 48.18164,100.6309 -0.19743,3.5088 -0.77778,7.5998 -2.04492,11.8262 a 97.580742,99.702057 0 0 0 24.64843,-25.2403 c -10.06432,-35.037 -67.60467,-65.7609 -70.71875,-115.1387 z"
       style="opacity:1;fill:#ffffff;fill-opacity:1;stroke:none;stroke-width:0;stroke-miterlimit:4;stroke-dasharray:none;stroke-opacity:1" />
    <g
       style="font-style:normal;font-weight:normal;font-size:40px;line-height:125%;font-family:sans-serif;letter-spacing:0px;word-spacing:0px;fill:#ffffff;fill-opacity:1;stroke:none;stroke-width:1px;stroke-linecap:butt;stroke-linejoin:miter;stroke-opacity:1"
       id="text5712">
      <path
         d="m 364.83255,533.82227 32.3877,0 q -1.23047,-6.63575 -5.80079,-10.94239 -4.57031,-4.30664 -10.45898,-4.30664 -5.84473,0 -10.41504,4.30664 -4.52637,4.30664 -5.71289,10.94239 z m 36.69434,3.73535 -37.30957,0 q 0,7.86621 4.92187,13.35937 4.92188,5.49317 11.64551,5.49317 4.43848,0 8.70117,-2.37305 4.2627,-2.37305 6.50391,-6.37207 l 3.47168,1.97754 q -2.68067,4.79004 -7.91016,7.86621 -5.22949,3.03223 -10.7666,3.03223 -5.58106,0 -10.2832,-3.12012 -4.65821,-3.12012 -7.33887,-8.39356 -2.63672,-5.31738 -2.63672,-11.46972 0,-6.1084 2.68066,-11.38184 2.72461,-5.27344 7.42676,-8.39355 4.7461,-3.16407 10.32715,-3.16407 5.27344,0 9.7998,2.85645 4.57032,2.8125 7.38282,7.60254 2.8125,4.79004 3.2959,10.50293 l 0.0879,1.97754 z"
         style="font-style:normal;font-variant:normal;font-weight:normal;font-stretch:normal;font-size:90px;font-family:Sawasdee;-inkscape-font-specification:Sawasdee;fill:#ffffff;fill-opacity:1"
         id="path4153" />
      <path
         d="m 432.50833,496.33691 q 6.15235,-2.63671 12.91992,-2.63671 6.76758,0 12.91993,2.63671 6.19628,2.63672 10.63476,7.11914 4.48242,4.48243 7.11914,10.67872 2.63672,6.19628 2.63672,13.00781 0,6.81152 -2.63672,13.00781 -2.63672,6.15234 -7.11914,10.63477 -4.43848,4.48242 -10.63476,7.11914 -6.15235,2.63672 -12.91993,2.63672 -6.76757,0 -12.91992,-2.63672 -6.15234,-2.63672 -10.59082,-7.11914 -4.43848,-4.48243 -7.07519,-10.63477 -2.63672,-6.19629 -2.63672,-13.00781 0,-6.81153 2.63672,-13.00781 2.63671,-6.19629 7.07519,-10.67872 4.43848,-4.48242 10.59082,-7.11914 z m -16.3916,30.80567 q 0,5.97656 2.28516,11.42578 2.3291,5.44922 6.24023,9.4043 3.91113,3.95507 9.36035,6.32812 5.44922,2.3291 11.42578,2.3291 6.02051,0 11.46973,-2.3291 5.44922,-2.37305 9.36035,-6.32812 3.91113,-3.95508 6.24024,-9.4043 2.3291,-5.44922 2.3291,-11.42578 0,-8.04199 -3.91114,-14.80957 -3.91113,-6.81153 -10.72265,-10.7666 -6.76758,-3.95508 -14.76563,-3.95508 -7.99804,0 -14.76562,3.95508 -6.72363,3.95507 -10.63477,10.7666 -3.91113,6.76758 -3.91113,14.80957 z"
         style="font-style:normal;font-variant:normal;font-weight:normal;font-stretch:normal;font-size:90px;font-family:Sawasdee;-inkscape-font-specification:Sawasdee;fill:#ffffff;fill-opacity:1"
         id="path4155" />
      <path
         d="m 491.48294,559.88184 0,-65.69825 23.29102,0 q 7.07519,0 11.99707,5.09766 4.92187,5.09766 4.92187,12.26074 0,7.25098 -4.92187,12.39258 -4.87793,5.1416 -11.86524,5.1416 l -19.46777,0 0,30.80567 -3.95508,0 z m 3.95508,-34.93653 19.46777,0 q 5.22949,0 8.96485,-3.91113 3.77929,-3.91113 3.77929,-9.49219 0,-5.58105 -3.77929,-9.49219 -3.7793,-3.95507 -9.09668,-3.95507 l -19.33594,0 0,26.85058 z"
         style="font-style:normal;font-variant:normal;font-weight:normal;font-stretch:normal;font-size:90px;font-family:Sawasdee;-inkscape-font-specification:Sawasdee;fill:#ffffff;fill-opacity:1"
         id="path4157" />
      <path
         d="m 599.28079,544.67676 3.16406,2.15332 q -4.57031,6.28418 -11.60156,9.93164 -7.03125,3.60351 -15.16113,3.60351 -6.76758,0 -12.91992,-2.63671 -6.15235,-2.63672 -10.59082,-7.11915 -4.43848,-4.48242 -7.0752,-10.67871 -2.63672,-6.19629 -2.63672,-13.00781 0,-6.81152 2.63672,-13.00781 2.63672,-6.19629 7.0752,-10.67871 4.43847,-4.48242 10.59082,-7.11914 6.15234,-2.63672 12.91992,-2.63672 8.08594,0 15.11719,3.6914 7.03125,3.64747 11.6455,9.97559 l -3.16406,2.3291 q -4.08691,-5.49316 -10.2832,-8.65722 -6.15234,-3.20801 -13.31543,-3.20801 -7.99805,0 -14.76563,3.95508 -6.72363,3.95507 -10.63476,10.7666 -3.91113,6.76758 -3.91113,14.80957 0,5.97656 2.28515,11.42578 2.3291,5.44922 6.24024,9.4043 3.91113,3.95507 9.36035,6.32812 5.44922,2.3291 11.42578,2.3291 7.16309,0 13.31543,-3.20801 6.19629,-3.208 10.2832,-8.74511 z"
         style="font-style:normal;font-variant:normal;font-weight:normal;font-stretch:normal;font-size:90px;font-family:Sawasdee;-inkscape-font-specification:Sawasdee;fill:#ffffff;fill-opacity:1"
         id="path4159" />
    </g>
  </g>
</svg>
