<?xml version="1.0" encoding="UTF-8" standalone="no"?>
<!-- Created with Inkscape (http://www.inkscape.org/) -->

<svg
   xmlns:dc="http://purl.org/dc/elements/1.1/"
   xmlns:cc="http://creativecommons.org/ns#"
   xmlns:rdf="http://www.w3.org/1999/02/22-rdf-syntax-ns#"
   xmlns:svg="http://www.w3.org/2000/svg"
   xmlns="http://www.w3.org/2000/svg"
   xmlns:sodipodi="http://sodipodi.sourceforge.net/DTD/sodipodi-0.dtd"
   xmlns:inkscape="http://www.inkscape.org/namespaces/inkscape"
   width="210mm"
   height="297mm"
   viewBox="0 0 744.09448819 1052.3622047"
   id="svg5418"
   version="1.1"
   inkscape:version="0.91 r13725"
   sodipodi:docname="eopc-logo-dark.svg">
  <defs
     id="defs5420" />
  <sodipodi:namedview
     id="base"
     pagecolor="#ffffff"
     bordercolor="#666666"
     borderopacity="1.0"
     inkscape:pageopacity="0.0"
     inkscape:pageshadow="2"
     inkscape:zoom="0.35"
     inkscape:cx="-273.57143"
     inkscape:cy="494.09946"
     inkscape:document-units="px"
     inkscape:current-layer="layer1"
     showgrid="false"
     inkscape:window-width="1920"
     inkscape:window-height="977"
     inkscape:window-x="0"
     inkscape:window-y="24"
     inkscape:window-maximized="1" />
  <metadata
     id="metadata5423">
    <rdf:RDF>
      <cc:Work
         rdf:about="">
        <dc:format>image/svg+xml</dc:format>
        <dc:type
           rdf:resource="http://purl.org/dc/dcmitype/StillImage" />
        <dc:title></dc:title>
      </cc:Work>
    </rdf:RDF>
  </metadata>
  <g
     inkscape:label="Layer 1"
     inkscape:groupmode="layer"
     id="layer1">
    <g
       id="g5990"
       transform="translate(-639.38131,-1123.324)">
      <rect
         y="1525.0543"
         x="744.8493"
         height="248.90158"
         width="533.15851"
         id="rect5708"
         style="opacity:1;fill:#1048c7;fill-opacity:1;stroke:none;stroke-width:0;stroke-miterlimit:4;stroke-dasharray:none;stroke-opacity:1" />
      <path
         style="opacity:1;fill:#ffffff;fill-opacity:1;stroke:none;stroke-width:0;stroke-miterlimit:4;stroke-dasharray:none;stroke-opacity:1"
         d="m 869.29957,1553.3386 a 97.580742,99.702057 0 0 0 -97.58009,99.7012 97.580742,99.702057 0 0 0 37.53711,78.4473 c -2.60564,-8.7791 -3.49835,-17.0031 -2.9668,-23.2442 3.65209,-42.8803 69.29216,-81.1064 72.94532,-140.0703 3.5327,58.9607 66.67074,97.1892 70.1836,140.0723 0.0335,0.409 0.0469,0.8461 0.0684,1.2715 a 97.580742,99.702057 0 0 0 17.39449,-56.4766 97.580742,99.702057 0 0 0 -97.58203,-99.7012 z m 9.29687,41.2871 c -3.31107,50.773 -62.80318,82.9748 -66.11329,119.8985 -0.48003,5.3547 0.26531,12.8963 2.50195,21.1406 a 97.580742,99.702057 0 0 0 22.90626,11.666 c -5.86432,-8.0401 -7.73635,-17.2274 -8.13086,-24.1543 -1.78895,-31.4107 45.28399,-63.103 48.76954,-100.6289 3.44149,37.5251 49.94907,69.2194 48.18164,100.6309 -0.19743,3.5088 -0.77778,7.5998 -2.04492,11.8262 a 97.580742,99.702057 0 0 0 24.64843,-25.2403 c -10.06432,-35.037 -67.60467,-65.7609 -70.71875,-115.1387 z"
         id="path5702"
         inkscape:connector-curvature="0" />
      <text
         xml:space="preserve"
         style="font-style:normal;font-weight:normal;font-size:40px;line-height:125%;font-family:sans-serif;letter-spacing:0px;word-spacing:0px;fill:#ffffff;fill-opacity:1;stroke:none;stroke-width:1px;stroke-linecap:butt;stroke-linejoin:miter;stroke-opacity:1"
         x="994.45801"
         y="1683.2058"
         id="text5712"
         sodipodi:linespacing="125%"><tspan
           sodipodi:role="line"
           id="tspan5714"
           x="994.45801"
           y="1683.2058"
           style="font-style:normal;font-variant:normal;font-weight:normal;font-stretch:normal;font-size:90px;font-family:Sawasdee;-inkscape-font-specification:Sawasdee;fill:#ffffff;fill-opacity:1">EOPC</tspan></text>
    </g>
  </g>
</svg>
