<?xml version="1.0" encoding="UTF-8" standalone="no"?>
<!-- Created with Inkscape (http://www.inkscape.org/) -->

<svg
   xmlns:dc="http://purl.org/dc/elements/1.1/"
   xmlns:cc="http://creativecommons.org/ns#"
   xmlns:rdf="http://www.w3.org/1999/02/22-rdf-syntax-ns#"
   xmlns:svg="http://www.w3.org/2000/svg"
   xmlns="http://www.w3.org/2000/svg"
   xmlns:xlink="http://www.w3.org/1999/xlink"
   xmlns:sodipodi="http://sodipodi.sourceforge.net/DTD/sodipodi-0.dtd"
   xmlns:inkscape="http://www.inkscape.org/namespaces/inkscape"
   width="210mm"
   height="297mm"
   viewBox="0 0 744.09448819 1052.3622047"
   id="svg2"
   version="1.1"
   inkscape:version="0.91 r13725"
   sodipodi:docname="eopc-logo.svg">
  <defs
     id="defs4">
    <linearGradient
       inkscape:collect="always"
       id="linearGradient5671">
      <stop
         style="stop-color:#ffffff;stop-opacity:1;"
         offset="0"
         id="stop5673" />
      <stop
         style="stop-color:#ffffff;stop-opacity:0;"
         offset="1"
         id="stop5675" />
    </linearGradient>
    <linearGradient
       inkscape:collect="always"
       xlink:href="#linearGradient5671"
       id="linearGradient5677"
       x1="2.4064701"
       y1="347.634"
       x2="195.86858"
       y2="326.87064"
       gradientUnits="userSpaceOnUse"
       gradientTransform="matrix(0.97234845,0,0,0.92788931,-11.958054,-476.41242)"
       spreadMethod="pad" />
    <linearGradient
       inkscape:collect="always"
       xlink:href="#linearGradient5671"
       id="linearGradient5730"
       x1="156.2706"
       y1="519.91083"
       x2="150.61375"
       y2="768.81238"
       gradientUnits="userSpaceOnUse"
       gradientTransform="matrix(0.97719871,0,0,0.96283784,-15.312201,-24.632228)" />
    <filter
       inkscape:collect="always"
       style="color-interpolation-filters:sRGB"
       id="filter4188"
       x="-0.21708751"
       width="1.434175"
       y="-0.21017177"
       height="1.4203435">
      <feGaussianBlur
         inkscape:collect="always"
         stdDeviation="16.679357"
         id="feGaussianBlur4190" />
    </filter>
  </defs>
  <sodipodi:namedview
     id="base"
     pagecolor="#ffffff"
     bordercolor="#666666"
     borderopacity="1.0"
     inkscape:pageopacity="0.0"
     inkscape:pageshadow="2"
     inkscape:zoom="1.4142136"
     inkscape:cx="93.434143"
     inkscape:cy="853.09411"
     inkscape:document-units="px"
     inkscape:current-layer="g5742"
     showgrid="false"
     inkscape:window-width="1920"
     inkscape:window-height="977"
     inkscape:window-x="0"
     inkscape:window-y="24"
     inkscape:window-maximized="1" />
  <metadata
     id="metadata7">
    <rdf:RDF>
      <cc:Work
         rdf:about="">
        <dc:format>image/svg+xml</dc:format>
        <dc:type
           rdf:resource="http://purl.org/dc/dcmitype/StillImage" />
        <dc:title />
      </cc:Work>
    </rdf:RDF>
  </metadata>
  <g
     inkscape:label="Layer 1"
     inkscape:groupmode="layer"
     id="layer1">
    <path
       style="opacity:1;fill:#0f47c8;fill-opacity:1;stroke:none;stroke-width:0;stroke-miterlimit:4;stroke-dasharray:none;stroke-opacity:1"
       d="m 150.6132,24.936147 a 97.580742,99.702057 0 0 0 -97.580083,99.701183 97.580742,99.702057 0 0 0 37.53711,78.44726 c -2.60564,-8.77911 -3.49835,-17.00305 -2.9668,-23.24414 3.65209,-42.88033 69.292153,-81.106433 72.945313,-140.070313 3.5327,58.96065 66.67074,97.189203 70.1836,140.072273 0.0335,0.40898 0.0469,0.84609 0.0684,1.27148 A 97.580742,99.702057 0 0 0 248.19523,124.63733 97.580742,99.702057 0 0 0 150.6132,24.936147 Z m 9.29687,41.28711 C 156.599,116.99624 97.106897,149.19803 93.796787,186.1217 c -0.48003,5.35472 0.26531,12.89633 2.50195,21.14063 A 97.580742,99.702057 0 0 0 119.205,218.92834 c -5.86432,-8.0401 -7.73635,-17.22742 -8.13086,-24.15429 -1.78895,-31.41077 45.28398,-63.10307 48.76953,-100.628913 3.44149,37.525073 49.94907,69.219393 48.18164,100.630863 -0.19743,3.50882 -0.77778,7.5998 -2.04492,11.82617 a 97.580742,99.702057 0 0 0 24.64843,-25.24023 C 220.5645,146.32488 163.02415,115.60104 159.91007,66.223257 Z"
       id="path5656"
       inkscape:connector-curvature="0" />
    <ellipse
       ry="92.512474"
       rx="94.882484"
       cy="-173.11267"
       cx="83.611954"
       id="ellipse5669"
       style="opacity:0.341;fill:url(#linearGradient5677);fill-opacity:1;stroke:none;stroke-opacity:1;filter:url(#filter4188)"
       transform="matrix(-0.20901859,0.97791167,-0.97302966,-0.23068002,0,0)" />
    <g
       style="font-style:normal;font-weight:normal;font-size:40px;line-height:125%;font-family:sans-serif;letter-spacing:0px;word-spacing:0px;fill:#1048c7;fill-opacity:1;stroke:none;stroke-width:1px;stroke-linecap:butt;stroke-linejoin:miter;stroke-opacity:1"
       id="text5682">
      <path
         d="m 277.7493,129.73358 32.38769,0 q -1.23047,-6.63574 -5.80078,-10.94238 -4.57031,-4.30664 -10.45898,-4.30664 -5.84473,0 -10.41504,4.30664 -4.52637,4.30664 -5.71289,10.94238 z m 36.69433,3.73535 -37.30957,0 q 0,7.86621 4.92188,13.35938 4.92187,5.49316 11.64551,5.49316 4.43847,0 8.70117,-2.37304 4.26269,-2.37305 6.5039,-6.37208 l 3.47168,1.97754 q -2.68066,4.79004 -7.91015,7.86621 -5.22949,3.03223 -10.7666,3.03223 -5.58106,0 -10.28321,-3.12012 -4.6582,-3.12011 -7.33886,-8.39355 -2.63672,-5.31738 -2.63672,-11.46973 0,-6.1084 2.68066,-11.38183 2.72461,-5.27344 7.42676,-8.39356 4.74609,-3.16406 10.32715,-3.16406 5.27344,0 9.7998,2.85645 4.57031,2.8125 7.38281,7.60253 2.8125,4.79004 3.2959,10.50293 l 0.0879,1.97754 z"
         style="font-style:normal;font-variant:normal;font-weight:normal;font-stretch:normal;font-size:90px;font-family:Sawasdee;-inkscape-font-specification:Sawasdee;fill:#1048c7;fill-opacity:1"
         id="path4151" />
      <path
         d="m 345.42508,92.24823 q 6.15234,-2.636719 12.91992,-2.636719 6.76758,0 12.91992,2.636719 6.19629,2.636719 10.63477,7.119141 4.48242,4.482419 7.11914,10.678709 2.63672,6.19629 2.63672,13.00781 0,6.81153 -2.63672,13.00782 -2.63672,6.15234 -7.11914,10.63476 -4.43848,4.48242 -10.63477,7.11914 -6.15234,2.63672 -12.91992,2.63672 -6.76758,0 -12.91992,-2.63672 -6.15234,-2.63672 -10.59082,-7.11914 -4.43848,-4.48242 -7.0752,-10.63476 -2.63672,-6.19629 -2.63672,-13.00782 0,-6.81152 2.63672,-13.00781 2.63672,-6.19629 7.0752,-10.678709 4.43848,-4.482422 10.59082,-7.119141 z m -16.3916,30.80566 q 0,5.97657 2.28515,11.42579 2.32911,5.44921 6.24024,9.40429 3.91113,3.95508 9.36035,6.32813 5.44922,2.3291 11.42578,2.3291 6.02051,0 11.46973,-2.3291 5.44922,-2.37305 9.36035,-6.32813 3.91113,-3.95508 6.24023,-9.40429 2.32911,-5.44922 2.32911,-11.42579 0,-8.04199 -3.91114,-14.80957 -3.91113,-6.81152 -10.72265,-10.766598 -6.76758,-3.955078 -14.76563,-3.955078 -7.99805,0 -14.76562,3.955078 -6.72364,3.955078 -10.63477,10.766598 -3.91113,6.76758 -3.91113,14.80957 z"
         style="font-style:normal;font-variant:normal;font-weight:normal;font-stretch:normal;font-size:90px;font-family:Sawasdee;-inkscape-font-specification:Sawasdee;fill:#1048c7;fill-opacity:1"
         id="path4153" />
      <path
         d="m 404.39969,155.79315 0,-65.69824 23.29101,0 q 7.0752,0 11.99707,5.097656 4.92188,5.097654 4.92188,12.260744 0,7.25097 -4.92188,12.39258 -4.87793,5.1416 -11.86523,5.1416 l -19.46777,0 0,30.80566 -3.95508,0 z m 3.95508,-34.93652 19.46777,0 q 5.22949,0 8.96484,-3.91113 3.7793,-3.91114 3.7793,-9.49219 0,-5.58106 -3.7793,-9.492189 -3.77929,-3.955079 -9.09668,-3.955079 l -19.33593,0 0,26.850588 z"
         style="font-style:normal;font-variant:normal;font-weight:normal;font-stretch:normal;font-size:90px;font-family:Sawasdee;-inkscape-font-specification:Sawasdee;fill:#1048c7;fill-opacity:1"
         id="path4155" />
      <path
         d="m 512.19754,140.58807 3.16406,2.15332 q -4.57031,6.28418 -11.60156,9.93164 -7.03125,3.60352 -15.16113,3.60352 -6.76758,0 -12.91992,-2.63672 -6.15235,-2.63672 -10.59082,-7.11914 -4.43848,-4.48242 -7.0752,-10.67871 -2.63672,-6.19629 -2.63672,-13.00781 0,-6.81153 2.63672,-13.00782 2.63672,-6.19628 7.0752,-10.678706 4.43847,-4.482422 10.59082,-7.119141 6.15234,-2.636718 12.91992,-2.636718 8.08593,0 15.11718,3.691406 7.03125,3.647461 11.64551,9.975589 l -3.16406,2.3291 q -4.08691,-5.493166 -10.2832,-8.657228 -6.15235,-3.208008 -13.31543,-3.208008 -7.99805,0 -14.76563,3.955078 -6.72363,3.955078 -10.63476,10.766598 -3.91114,6.76758 -3.91114,14.80957 0,5.97657 2.28516,11.42579 2.3291,5.44921 6.24023,9.40429 3.91114,3.95508 9.36036,6.32813 5.44921,2.3291 11.42578,2.3291 7.16308,0 13.31543,-3.20801 6.19629,-3.20801 10.2832,-8.74512 z"
         style="font-style:normal;font-variant:normal;font-weight:normal;font-stretch:normal;font-size:90px;font-family:Sawasdee;-inkscape-font-specification:Sawasdee;fill:#1048c7;fill-opacity:1"
         id="path4157" />
    </g>
    <rect
       style="opacity:1;fill:#1048c7;fill-opacity:1;stroke:none;stroke-width:0;stroke-miterlimit:4;stroke-dasharray:none;stroke-opacity:1"
       id="rect5708"
       width="533.15851"
       height="248.90158"
       x="25.455843"
       y="242.72495" />
    <path
       inkscape:connector-curvature="0"
       id="path5702"
       d="m 149.90609,271.00931 a 97.580742,99.702057 0 0 0 -97.58008,99.70118 97.580742,99.702057 0 0 0 37.53711,78.44726 c -2.60564,-8.77911 -3.49835,-17.00305 -2.9668,-23.24414 3.65209,-42.88033 69.29215,-81.10643 72.94531,-140.07031 3.5327,58.96065 66.67074,97.1892 70.1836,140.07227 0.0335,0.40898 0.0469,0.84609 0.0684,1.27148 a 97.580742,99.702057 0 0 0 17.39449,-56.47656 97.580742,99.702057 0 0 0 -97.58203,-99.70118 z m 9.29687,41.28711 c -3.31107,50.77298 -62.80317,82.97477 -66.11328,119.89844 -0.48003,5.35472 0.26531,12.89633 2.50195,21.14063 a 97.580742,99.702057 0 0 0 22.90626,11.66601 c -5.86432,-8.0401 -7.73635,-17.22742 -8.13086,-24.15429 -1.78895,-31.41077 45.28398,-63.10307 48.76953,-100.62891 3.44149,37.52507 49.94907,69.21939 48.18164,100.63086 -0.19743,3.50882 -0.77778,7.5998 -2.04492,11.82617 A 97.580742,99.702057 0 0 0 229.92171,427.4351 C 219.85739,392.39804 162.31704,361.6742 159.20296,312.29642 Z"
       style="opacity:1;fill:#ffffff;fill-opacity:1;stroke:none;stroke-width:0;stroke-miterlimit:4;stroke-dasharray:none;stroke-opacity:1" />
    <g
       style="font-style:normal;font-weight:normal;font-size:40px;line-height:125%;font-family:sans-serif;letter-spacing:0px;word-spacing:0px;fill:#ffffff;fill-opacity:1;stroke:none;stroke-width:1px;stroke-linecap:butt;stroke-linejoin:miter;stroke-opacity:1"
       id="text5712">
      <path
         d="m 284.82037,374.81693 32.3877,0 q -1.23047,-6.63575 -5.80078,-10.94239 -4.57031,-4.30664 -10.45899,-4.30664 -5.84472,0 -10.41504,4.30664 -4.52636,4.30664 -5.71289,10.94239 z m 36.69434,3.73535 -37.30957,0 q 0,7.86621 4.92187,13.35937 4.92188,5.49317 11.64551,5.49317 4.43848,0 8.70117,-2.37305 4.2627,-2.37305 6.50391,-6.37207 l 3.47168,1.97754 q -2.68066,4.79004 -7.91016,7.86621 -5.22949,3.03223 -10.7666,3.03223 -5.58105,0 -10.2832,-3.12012 -4.6582,-3.12012 -7.33887,-8.39356 -2.63672,-5.31738 -2.63672,-11.46972 0,-6.1084 2.68067,-11.38184 2.72461,-5.27344 7.42675,-8.39355 4.7461,-3.16407 10.32715,-3.16407 5.27344,0 9.79981,2.85645 4.57031,2.8125 7.38281,7.60254 2.8125,4.79004 3.2959,10.50293 l 0.0879,1.97754 z"
         style="font-style:normal;font-variant:normal;font-weight:normal;font-stretch:normal;font-size:90px;font-family:Sawasdee;-inkscape-font-specification:Sawasdee;fill:#ffffff;fill-opacity:1"
         id="path4160" />
      <path
         d="m 352.49615,337.33157 q 6.15235,-2.63672 12.91993,-2.63672 6.76757,0 12.91992,2.63672 6.19629,2.63672 10.63476,7.11914 4.48243,4.48243 7.11914,10.67872 2.63672,6.19628 2.63672,13.00781 0,6.81152 -2.63672,13.00781 -2.63671,6.15234 -7.11914,10.63477 -4.43847,4.48242 -10.63476,7.11914 -6.15235,2.63672 -12.91992,2.63672 -6.76758,0 -12.91993,-2.63672 -6.15234,-2.63672 -10.59082,-7.11914 -4.43847,-4.48243 -7.07519,-10.63477 -2.63672,-6.19629 -2.63672,-13.00781 0,-6.81153 2.63672,-13.00781 2.63672,-6.19629 7.07519,-10.67872 4.43848,-4.48242 10.59082,-7.11914 z m -16.3916,30.80567 q 0,5.97656 2.28516,11.42578 2.3291,5.44922 6.24023,9.4043 3.91114,3.95507 9.36036,6.32812 5.44921,2.3291 11.42578,2.3291 6.0205,0 11.46972,-2.3291 5.44922,-2.37305 9.36035,-6.32812 3.91114,-3.95508 6.24024,-9.4043 2.3291,-5.44922 2.3291,-11.42578 0,-8.04199 -3.91113,-14.80957 -3.91113,-6.81153 -10.72266,-10.7666 -6.76758,-3.95508 -14.76562,-3.95508 -7.99805,0 -14.76563,3.95508 -6.72363,3.95507 -10.63476,10.7666 -3.91114,6.76758 -3.91114,14.80957 z"
         style="font-style:normal;font-variant:normal;font-weight:normal;font-stretch:normal;font-size:90px;font-family:Sawasdee;-inkscape-font-specification:Sawasdee;fill:#ffffff;fill-opacity:1"
         id="path4162" />
      <path
         d="m 411.47076,400.8765 0,-65.69825 23.29102,0 q 7.0752,0 11.99707,5.09766 4.92188,5.09766 4.92188,12.26074 0,7.25098 -4.92188,12.39258 -4.87793,5.1416 -11.86523,5.1416 l -19.46778,0 0,30.80567 -3.95508,0 z m 3.95508,-34.93653 19.46778,0 q 5.22949,0 8.96484,-3.91113 3.7793,-3.91113 3.7793,-9.49219 0,-5.58105 -3.7793,-9.49219 -3.7793,-3.95507 -9.09668,-3.95507 l -19.33594,0 0,26.85058 z"
         style="font-style:normal;font-variant:normal;font-weight:normal;font-stretch:normal;font-size:90px;font-family:Sawasdee;-inkscape-font-specification:Sawasdee;fill:#ffffff;fill-opacity:1"
         id="path4164" />
      <path
         d="m 519.26862,385.67142 3.16406,2.15332 q -4.57031,6.28418 -11.60156,9.93164 -7.03125,3.60351 -15.16114,3.60351 -6.76758,0 -12.91992,-2.63671 -6.15234,-2.63672 -10.59082,-7.11915 -4.43848,-4.48242 -7.07519,-10.67871 -2.63672,-6.19629 -2.63672,-13.00781 0,-6.81152 2.63672,-13.00781 2.63671,-6.19629 7.07519,-10.67871 4.43848,-4.48242 10.59082,-7.11914 6.15234,-2.63672 12.91992,-2.63672 8.08594,0 15.11719,3.6914 7.03125,3.64747 11.64551,9.97559 l -3.16406,2.3291 q -4.08692,-5.49316 -10.28321,-8.65722 -6.15234,-3.20801 -13.31543,-3.20801 -7.99804,0 -14.76562,3.95508 -6.72363,3.95507 -10.63477,10.7666 -3.91113,6.76758 -3.91113,14.80957 0,5.97656 2.28516,11.42578 2.3291,5.44922 6.24023,9.4043 3.91113,3.95507 9.36035,6.32812 5.44922,2.3291 11.42578,2.3291 7.16309,0 13.31543,-3.20801 6.19629,-3.208 10.28321,-8.74511 z"
         style="font-style:normal;font-variant:normal;font-weight:normal;font-stretch:normal;font-size:90px;font-family:Sawasdee;-inkscape-font-specification:Sawasdee;fill:#ffffff;fill-opacity:1"
         id="path4166" />
    </g>
    <g
       id="g5742"
       transform="translate(2,0)">
      <rect
         ry="45.254833"
         y="520.49658"
         x="23.334524"
         height="209.30362"
         width="217.08179"
         id="rect5718"
         style="opacity:1;fill:#1047c7;fill-opacity:1;stroke:none;stroke-width:0;stroke-miterlimit:4;stroke-dasharray:none;stroke-opacity:1" />
      <path
         inkscape:connector-curvature="0"
         id="path5720"
         d="m 132.93567,544.4493 a 82.731547,84.530054 0 0 0 -82.73098,84.52931 82.731547,84.530054 0 0 0 31.824964,66.50968 c -2.209135,-7.44317 -2.965998,-14.41565 -2.515336,-19.707 3.096336,-36.35509 58.747722,-68.76419 61.844962,-118.75533 2.99512,49.9884 56.52523,82.39959 59.50353,118.75699 0.0284,0.34675 0.0398,0.71734 0.058,1.078 a 82.731547,84.530054 0 0 0 14.74751,-47.88234 82.731547,84.530054 0 0 0 -82.73264,-84.52931 z m 7.88213,35.00432 c -2.80721,43.04668 -53.246186,70.3482 -56.052586,101.65308 -0.40698,4.53988 0.22494,10.93385 2.12122,17.92359 a 82.731547,84.530054 0 0 0 19.420526,9.89075 c -4.97192,-6.81661 -6.559076,-14.60586 -6.893556,-20.47865 -1.51672,-26.63089 38.392956,-53.50046 41.348106,-85.31586 2.91778,31.81475 42.34815,58.68604 40.84967,85.31752 -0.16738,2.97487 -0.65942,6.44331 -1.73374,10.02654 a 82.731547,84.530054 0 0 0 20.8976,-21.39935 C 192.24224,647.3659 143.458,621.3174 140.8178,579.45362 Z"
         style="opacity:1;fill:#ffffff;fill-opacity:1;stroke:none;stroke-width:0;stroke-miterlimit:4;stroke-dasharray:none;stroke-opacity:1" />
      <rect
         style="opacity:0.293;fill:url(#linearGradient5730);fill-opacity:1;stroke:none;stroke-width:0;stroke-miterlimit:4;stroke-dasharray:none;stroke-opacity:1"
         id="rect5722"
         width="212.13203"
         height="201.52545"
         x="25.455847"
         y="522.25397"
         ry="43.573067" />
    </g>
  </g>
</svg>
