<?xml version="1.0" encoding="UTF-8" standalone="no"?>
<!-- Created with Inkscape (http://www.inkscape.org/) -->

<svg
   xmlns:dc="http://purl.org/dc/elements/1.1/"
   xmlns:cc="http://creativecommons.org/ns#"
   xmlns:rdf="http://www.w3.org/1999/02/22-rdf-syntax-ns#"
   xmlns:svg="http://www.w3.org/2000/svg"
   xmlns="http://www.w3.org/2000/svg"
   xmlns:xlink="http://www.w3.org/1999/xlink"
   xmlns:sodipodi="http://sodipodi.sourceforge.net/DTD/sodipodi-0.dtd"
   xmlns:inkscape="http://www.inkscape.org/namespaces/inkscape"
   width="210mm"
   height="297mm"
   viewBox="0 0 744.09448819 1052.3622047"
   id="svg4785"
   version="1.1"
   inkscape:version="0.91 r13725"
   sodipodi:docname="eopc-logo-full.svg">
  <defs
     id="defs4787">
    <linearGradient
       inkscape:collect="always"
       xlink:href="#linearGradient5671"
       id="linearGradient5677"
       x1="2.4064701"
       y1="347.634"
       x2="195.86858"
       y2="326.87064"
       gradientUnits="userSpaceOnUse"
       gradientTransform="matrix(0.97234845,0,0,0.92788931,361.03651,-648.6276)"
       spreadMethod="pad" />
    <linearGradient
       inkscape:collect="always"
       id="linearGradient5671">
      <stop
         style="stop-color:#ffffff;stop-opacity:1;"
         offset="0"
         id="stop5673" />
      <stop
         style="stop-color:#ffffff;stop-opacity:0;"
         offset="1"
         id="stop5675" />
    </linearGradient>
    <filter
       inkscape:collect="always"
       style="color-interpolation-filters:sRGB"
       id="filter4574"
       x="-0.048783709"
       width="1.0975674"
       y="-0.047229612"
       height="1.0944592">
      <feGaussianBlur
         inkscape:collect="always"
         stdDeviation="3.74817"
         id="feGaussianBlur4576" />
    </filter>
  </defs>
  <sodipodi:namedview
     id="base"
     pagecolor="#ffffff"
     bordercolor="#666666"
     borderopacity="1.0"
     inkscape:pageopacity="0.0"
     inkscape:pageshadow="2"
     inkscape:zoom="2.0502155"
     inkscape:cx="444.42866"
     inkscape:cy="500.81783"
     inkscape:document-units="px"
     inkscape:current-layer="layer1"
     showgrid="false"
     inkscape:window-width="1920"
     inkscape:window-height="977"
     inkscape:window-x="0"
     inkscape:window-y="24"
     inkscape:window-maximized="1" />
  <metadata
     id="metadata4790">
    <rdf:RDF>
      <cc:Work
         rdf:about="">
        <dc:format>image/svg+xml</dc:format>
        <dc:type
           rdf:resource="http://purl.org/dc/dcmitype/StillImage" />
        <dc:title />
      </cc:Work>
    </rdf:RDF>
  </metadata>
  <g
     inkscape:label="Layer 1"
     inkscape:groupmode="layer"
     id="layer1">
    <path
       style="opacity:1;fill:#0f47c8;fill-opacity:1;stroke:none;stroke-width:0;stroke-miterlimit:4;stroke-dasharray:none;stroke-opacity:1"
       d="m 240.2209,429.18501 a 97.580742,99.702057 0 0 0 -97.5801,99.70118 97.580742,99.702057 0 0 0 37.5371,78.44726 c -2.6056,-8.77911 -3.4983,-17.00305 -2.9668,-23.24414 3.6521,-42.88033 69.2922,-81.10643 72.9453,-140.07031 3.5327,58.96065 66.6708,97.1892 70.1836,140.07227 0.034,0.40898 0.047,0.84609 0.068,1.27148 a 97.580742,99.702057 0 0 0 17.3945,-56.47656 97.580742,99.702057 0 0 0 -97.582,-99.70118 z m 9.2968,41.28711 c -3.311,50.77298 -62.8031,82.97477 -66.1132,119.89844 -0.4801,5.35472 0.2653,12.89633 2.5019,21.14063 a 97.580742,99.702057 0 0 0 22.9063,11.66601 c -5.8643,-8.0401 -7.7364,-17.22742 -8.1309,-24.15429 -1.7889,-31.41077 45.284,-63.10307 48.7695,-100.62891 3.4415,37.52507 49.9491,69.21939 48.1817,100.63086 -0.1974,3.50882 -0.7778,7.5998 -2.0449,11.82617 A 97.580742,99.702057 0 0 0 320.2365,585.6108 C 310.1722,550.57374 252.6318,519.8499 249.5177,470.47212 Z"
       id="path5656"
       inkscape:connector-curvature="0" />
    <ellipse
       ry="92.512474"
       rx="94.882484"
       cy="-345.32788"
       cx="456.60654"
       id="ellipse5669"
       style="opacity:0.398;fill:url(#linearGradient5677);fill-opacity:1;stroke:none;stroke-opacity:1;filter:url(#filter4574)"
       transform="matrix(-0.20901859,0.97791167,-0.97302966,-0.23068002,0,0)" />
    <g
       transform="translate(18.514619,-0.82964264)"
       style="font-style:normal;font-weight:normal;font-size:40px;line-height:125%;font-family:sans-serif;letter-spacing:0px;word-spacing:0px;fill:#1061c7;fill-opacity:1;stroke:none;stroke-width:1px;stroke-linecap:butt;stroke-linejoin:miter;stroke-opacity:1"
       id="text5712">
      <path
         inkscape:connector-curvature="0"
         d="m 364.83255,533.82227 32.3877,0 q -1.23047,-6.63575 -5.80079,-10.94239 -4.57031,-4.30664 -10.45898,-4.30664 -5.84473,0 -10.41504,4.30664 -4.52637,4.30664 -5.71289,10.94239 z m 36.69434,3.73535 -37.30957,0 q 0,7.86621 4.92187,13.35937 4.92188,5.49317 11.64551,5.49317 4.43848,0 8.70117,-2.37305 4.2627,-2.37305 6.50391,-6.37207 l 3.47168,1.97754 q -2.68067,4.79004 -7.91016,7.86621 -5.22949,3.03223 -10.7666,3.03223 -5.58106,0 -10.2832,-3.12012 -4.65821,-3.12012 -7.33887,-8.39356 -2.63672,-5.31738 -2.63672,-11.46972 0,-6.1084 2.68066,-11.38184 2.72461,-5.27344 7.42676,-8.39355 4.7461,-3.16407 10.32715,-3.16407 5.27344,0 9.7998,2.85645 4.57032,2.8125 7.38282,7.60254 2.8125,4.79004 3.2959,10.50293 l 0.0879,1.97754 z"
         style="font-style:normal;font-variant:normal;font-weight:normal;font-stretch:normal;font-size:90px;font-family:Sawasdee;-inkscape-font-specification:Sawasdee;fill:#1061c7;fill-opacity:1"
         id="path4153" />
      <path
         inkscape:connector-curvature="0"
         d="m 432.50833,496.33691 q 6.15235,-2.63671 12.91992,-2.63671 6.76758,0 12.91993,2.63671 6.19628,2.63672 10.63476,7.11914 4.48242,4.48243 7.11914,10.67872 2.63672,6.19628 2.63672,13.00781 0,6.81152 -2.63672,13.00781 -2.63672,6.15234 -7.11914,10.63477 -4.43848,4.48242 -10.63476,7.11914 -6.15235,2.63672 -12.91993,2.63672 -6.76757,0 -12.91992,-2.63672 -6.15234,-2.63672 -10.59082,-7.11914 -4.43848,-4.48243 -7.07519,-10.63477 -2.63672,-6.19629 -2.63672,-13.00781 0,-6.81153 2.63672,-13.00781 2.63671,-6.19629 7.07519,-10.67872 4.43848,-4.48242 10.59082,-7.11914 z m -16.3916,30.80567 q 0,5.97656 2.28516,11.42578 2.3291,5.44922 6.24023,9.4043 3.91113,3.95507 9.36035,6.32812 5.44922,2.3291 11.42578,2.3291 6.02051,0 11.46973,-2.3291 5.44922,-2.37305 9.36035,-6.32812 3.91113,-3.95508 6.24024,-9.4043 2.3291,-5.44922 2.3291,-11.42578 0,-8.04199 -3.91114,-14.80957 -3.91113,-6.81153 -10.72265,-10.7666 -6.76758,-3.95508 -14.76563,-3.95508 -7.99804,0 -14.76562,3.95508 -6.72363,3.95507 -10.63477,10.7666 -3.91113,6.76758 -3.91113,14.80957 z"
         style="font-style:normal;font-variant:normal;font-weight:normal;font-stretch:normal;font-size:90px;font-family:Sawasdee;-inkscape-font-specification:Sawasdee;fill:#1061c7;fill-opacity:1"
         id="path4155" />
      <path
         inkscape:connector-curvature="0"
         d="m 491.48294,559.88184 0,-65.69825 23.29102,0 q 7.07519,0 11.99707,5.09766 4.92187,5.09766 4.92187,12.26074 0,7.25098 -4.92187,12.39258 -4.87793,5.1416 -11.86524,5.1416 l -19.46777,0 0,30.80567 -3.95508,0 z m 3.95508,-34.93653 19.46777,0 q 5.22949,0 8.96485,-3.91113 3.77929,-3.91113 3.77929,-9.49219 0,-5.58105 -3.77929,-9.49219 -3.7793,-3.95507 -9.09668,-3.95507 l -19.33594,0 0,26.85058 z"
         style="font-style:normal;font-variant:normal;font-weight:normal;font-stretch:normal;font-size:90px;font-family:Sawasdee;-inkscape-font-specification:Sawasdee;fill:#1061c7;fill-opacity:1"
         id="path4157" />
      <path
         inkscape:connector-curvature="0"
         d="m 599.28079,544.67676 3.16406,2.15332 q -4.57031,6.28418 -11.60156,9.93164 -7.03125,3.60351 -15.16113,3.60351 -6.76758,0 -12.91992,-2.63671 -6.15235,-2.63672 -10.59082,-7.11915 -4.43848,-4.48242 -7.0752,-10.67871 -2.63672,-6.19629 -2.63672,-13.00781 0,-6.81152 2.63672,-13.00781 2.63672,-6.19629 7.0752,-10.67871 4.43847,-4.48242 10.59082,-7.11914 6.15234,-2.63672 12.91992,-2.63672 8.08594,0 15.11719,3.6914 7.03125,3.64747 11.6455,9.97559 l -3.16406,2.3291 q -4.08691,-5.49316 -10.2832,-8.65722 -6.15234,-3.20801 -13.31543,-3.20801 -7.99805,0 -14.76563,3.95508 -6.72363,3.95507 -10.63476,10.7666 -3.91113,6.76758 -3.91113,14.80957 0,5.97656 2.28515,11.42578 2.3291,5.44922 6.24024,9.4043 3.91113,3.95507 9.36035,6.32812 5.44922,2.3291 11.42578,2.3291 7.16309,0 13.31543,-3.20801 6.19629,-3.208 10.2832,-8.74511 z"
         style="font-style:normal;font-variant:normal;font-weight:normal;font-stretch:normal;font-size:90px;font-family:Sawasdee;-inkscape-font-specification:Sawasdee;fill:#1061c7;fill-opacity:1"
         id="path4159" />
    </g>
  </g>
</svg>
