<?xml version="1.0" encoding="UTF-8" standalone="no"?>
<!-- Created with Inkscape (http://www.inkscape.org/) -->

<svg
   xmlns:dc="http://purl.org/dc/elements/1.1/"
   xmlns:cc="http://creativecommons.org/ns#"
   xmlns:rdf="http://www.w3.org/1999/02/22-rdf-syntax-ns#"
   xmlns:svg="http://www.w3.org/2000/svg"
   xmlns="http://www.w3.org/2000/svg"
   xmlns:xlink="http://www.w3.org/1999/xlink"
   xmlns:sodipodi="http://sodipodi.sourceforge.net/DTD/sodipodi-0.dtd"
   xmlns:inkscape="http://www.inkscape.org/namespaces/inkscape"
   width="210mm"
   height="297mm"
   viewBox="0 0 744.09448819 1052.3622047"
   id="svg4785"
   version="1.1"
   inkscape:version="0.91 r13725"
   sodipodi:docname="eopc-logo-full.svg">
  <defs
     id="defs4787">
    <linearGradient
       inkscape:collect="always"
       xlink:href="#linearGradient5671"
       id="linearGradient5677"
       x1="2.4064701"
       y1="347.634"
       x2="195.86858"
       y2="326.87064"
       gradientUnits="userSpaceOnUse"
       gradientTransform="matrix(0.97234845,0,0,0.92788931,387.72637,1569.0819)"
       spreadMethod="pad" />
    <linearGradient
       inkscape:collect="always"
       id="linearGradient5671">
      <stop
         style="stop-color:#ffffff;stop-opacity:1;"
         offset="0"
         id="stop5673" />
      <stop
         style="stop-color:#ffffff;stop-opacity:0;"
         offset="1"
         id="stop5675" />
    </linearGradient>
  </defs>
  <sodipodi:namedview
     id="base"
     pagecolor="#ffffff"
     bordercolor="#666666"
     borderopacity="1.0"
     inkscape:pageopacity="0.0"
     inkscape:pageshadow="2"
     inkscape:zoom="0.35"
     inkscape:cx="-159.28571"
     inkscape:cy="520"
     inkscape:document-units="px"
     inkscape:current-layer="layer1"
     showgrid="false"
     inkscape:window-width="1920"
     inkscape:window-height="977"
     inkscape:window-x="0"
     inkscape:window-y="24"
     inkscape:window-maximized="1" />
  <metadata
     id="metadata4790">
    <rdf:RDF>
      <cc:Work
         rdf:about="">
        <dc:format>image/svg+xml</dc:format>
        <dc:type
           rdf:resource="http://purl.org/dc/dcmitype/StillImage" />
        <dc:title></dc:title>
      </cc:Work>
    </rdf:RDF>
  </metadata>
  <g
     inkscape:label="Layer 1"
     inkscape:groupmode="layer"
     id="layer1">
    <g
       id="g5359"
       transform="translate(2163.4758,485.24747)">
      <path
         inkscape:connector-curvature="0"
         id="path5656"
         d="m -1923.2549,-56.062462 a 97.580742,99.702057 0 0 0 -97.5801,99.701183 97.580742,99.702057 0 0 0 37.5371,78.447259 c -2.6056,-8.77911 -3.4983,-17.00305 -2.9668,-23.244142 3.6521,-42.88033 69.2922,-81.10643 72.9453,-140.07031 3.5327,58.96065 66.6708,97.1892 70.1836,140.07227 0.034,0.40898 0.047,0.84609 0.068,1.271482 a 97.580742,99.702057 0 0 0 17.3945,-56.476559 97.580742,99.702057 0 0 0 -97.582,-99.701183 z m 9.2968,41.28711 c -3.311,50.772983 -62.8031,82.97477 -66.1132,119.898442 -0.4801,5.35472 0.2653,12.89633 2.5019,21.14063 a 97.580742,99.702057 0 0 0 22.9063,11.66601 c -5.8643,-8.0401 -7.7364,-17.22742 -8.1309,-24.15429 -1.7889,-31.410772 45.284,-63.103072 48.7695,-100.628912 3.4415,37.52507 49.9491,69.21939 48.1817,100.630862 -0.1974,3.50882 -0.7778,7.5998 -2.0449,11.82617 a 97.580742,99.702057 0 0 0 24.6484,-25.24023 c -10.0643,-35.037062 -67.6047,-65.760899 -70.7188,-115.138682 z"
         style="opacity:1;fill:#0f47c8;fill-opacity:1;stroke:none;stroke-width:0;stroke-miterlimit:4;stroke-dasharray:none;stroke-opacity:1" />
      <ellipse
         transform="matrix(-0.20901859,0.97791167,-0.97302966,-0.23068002,0,0)"
         style="opacity:0.51000001;fill:url(#linearGradient5677);fill-opacity:1;stroke:none;stroke-opacity:1"
         id="ellipse5669"
         cx="483.29639"
         cy="1872.3816"
         rx="94.882484"
         ry="92.512474" />
      <g
         id="text5682"
         style="font-style:normal;font-weight:normal;font-size:40px;line-height:125%;font-family:sans-serif;letter-spacing:0px;word-spacing:0px;fill:#1048c7;fill-opacity:1;stroke:none;stroke-width:1px;stroke-linecap:butt;stroke-linejoin:miter;stroke-opacity:1"
         transform="translate(-2073.8681,-80.998609)">
        <path
           id="path4168"
           style="font-style:normal;font-variant:normal;font-weight:normal;font-stretch:normal;font-size:90px;font-family:Sawasdee;-inkscape-font-specification:Sawasdee;fill:#1048c7;fill-opacity:1"
           d="m 310.79617,115.71503 0,3.95507 -31.46484,0 0,32.16797 34.01367,0 0,3.95508 -37.96875,0 0,-65.61035 38.14453,0 0,3.955078 -34.18945,0 0,21.577152 31.46484,0 z"
           inkscape:connector-curvature="0" />
        <path
           id="path4170"
           style="font-style:normal;font-variant:normal;font-weight:normal;font-stretch:normal;font-size:90px;font-family:Sawasdee;-inkscape-font-specification:Sawasdee;fill:#1048c7;fill-opacity:1"
           d="m 341.90945,92.24823 q 6.15235,-2.636719 12.91993,-2.636719 6.76757,0 12.91992,2.636719 6.19629,2.636719 10.63476,7.119141 4.48243,4.482419 7.11914,10.678709 2.63672,6.19629 2.63672,13.00781 0,6.81153 -2.63672,13.00782 -2.63671,6.15234 -7.11914,10.63476 -4.43847,4.48242 -10.63476,7.11914 -6.15235,2.63672 -12.91992,2.63672 -6.76758,0 -12.91993,-2.63672 -6.15234,-2.63672 -10.59082,-7.11914 -4.43847,-4.48242 -7.07519,-10.63476 -2.63672,-6.19629 -2.63672,-13.00782 0,-6.81152 2.63672,-13.00781 2.63672,-6.19629 7.07519,-10.678709 4.43848,-4.482422 10.59082,-7.119141 z m -16.3916,30.80566 q 0,5.97657 2.28516,11.42579 2.3291,5.44921 6.24023,9.40429 3.91114,3.95508 9.36035,6.32813 5.44922,2.3291 11.42579,2.3291 6.0205,0 11.46972,-2.3291 5.44922,-2.37305 9.36035,-6.32813 3.91114,-3.95508 6.24024,-9.40429 2.3291,-5.44922 2.3291,-11.42579 0,-8.04199 -3.91113,-14.80957 -3.91114,-6.81152 -10.72266,-10.766598 -6.76758,-3.955078 -14.76562,-3.955078 -7.99805,0 -14.76563,3.955078 -6.72363,3.955078 -10.63476,10.766598 -3.91114,6.76758 -3.91114,14.80957 z"
           inkscape:connector-curvature="0" />
        <path
           id="path4172"
           style="font-style:normal;font-variant:normal;font-weight:normal;font-stretch:normal;font-size:90px;font-family:Sawasdee;-inkscape-font-specification:Sawasdee;fill:#1048c7;fill-opacity:1"
           d="m 400.88406,155.79315 0,-65.69824 23.29102,0 q 7.07519,0 11.99707,5.097656 4.92187,5.097654 4.92187,12.260744 0,7.25097 -4.92187,12.39258 -4.87793,5.1416 -11.86523,5.1416 l -19.46778,0 0,30.80566 -3.95508,0 z m 3.95508,-34.93652 19.46778,0 q 5.22949,0 8.96484,-3.91113 3.7793,-3.91114 3.7793,-9.49219 0,-5.58106 -3.7793,-9.492189 -3.7793,-3.955079 -9.09668,-3.955079 l -19.33594,0 0,26.850588 z"
           inkscape:connector-curvature="0" />
        <path
           id="path4174"
           style="font-style:normal;font-variant:normal;font-weight:normal;font-stretch:normal;font-size:90px;font-family:Sawasdee;-inkscape-font-specification:Sawasdee;fill:#1048c7;fill-opacity:1"
           d="m 508.68192,140.58807 3.16406,2.15332 q -4.57031,6.28418 -11.60156,9.93164 -7.03125,3.60352 -15.16114,3.60352 -6.76758,0 -12.91992,-2.63672 -6.15234,-2.63672 -10.59082,-7.11914 -4.43848,-4.48242 -7.0752,-10.67871 -2.63671,-6.19629 -2.63671,-13.00781 0,-6.81153 2.63671,-13.00782 2.63672,-6.19628 7.0752,-10.678706 4.43848,-4.482422 10.59082,-7.119141 6.15234,-2.636718 12.91992,-2.636718 8.08594,0 15.11719,3.691406 7.03125,3.647461 11.64551,9.975589 l -3.16406,2.3291 q -4.08692,-5.493166 -10.28321,-8.657228 -6.15234,-3.208008 -13.31543,-3.208008 -7.99804,0 -14.76562,3.955078 -6.72364,3.955078 -10.63477,10.766598 -3.91113,6.76758 -3.91113,14.80957 0,5.97657 2.28516,11.42579 2.3291,5.44921 6.24023,9.40429 3.91113,3.95508 9.36035,6.32813 5.44922,2.3291 11.42578,2.3291 7.16309,0 13.31543,-3.20801 6.19629,-3.20801 10.28321,-8.74512 z"
           inkscape:connector-curvature="0" />
      </g>
    </g>
  </g>
</svg>
